PathFileType	4	(X/Y/Z)	C:/Users/beibeiliu/ov580/test_trc\sequence.32_training_dense_left.trc
DataRate	CameraRate	NumFrames	NumMarkers	Units	OrigDataRate	OrigDataStartFrame	OrigNumFrames
120	120	16	19	mm	120	78	310
Frame#	Time	ThumbCMC			ThumbMCP			ThumbIP			ThumbTip			IndexMCP			IndexPIP			IndexTip			MiddleMCP			MiddlePIP			MiddleTip			RingMCP			RingPIP			RingTip			PinkyMCP			PinkyPIP			PinkyTip			BackHand1			BackHand2			BackHand3	
		X0	Y0	Z0	X1	Y1	Z1	X2	Y2	Z2	X3	Y3	Z3	X4	Y4	Z4	X5	Y5	Z5	X6	Y6	Z6	X7	Y7	Z7	X8	Y8	Z8	X9	Y9	Z9	X10	Y10	Z10	X11	Y11	Z11	X12	Y12	Z12	X13	Y13	Z13	X14	Y14	Z14	X15	Y15	Z15	X16	Y16	Z16	X17	Y17	Z17	X18	Y18	Z18	
77	0.641667	-148.208	-16.1718	24.5308	-150.009	-30.2389	-5.11995	-164.132	-30.5452	-26.9823	-186.117	-24.8588	-35.8281	-143.336	6.70255	-33.544	-135.108	10.8019	-54.5124	-129.204	19.0081	-73.904	-162.429	17.283	-41.1157	-163.286	22.5103	-59.8873	-165.141	33.9749	-81.8334	-185.696	17.8692	-34.4265	-189.935	26.666	-54.1664	-189.819	37.2728	-69.8948	-205.358	15.3309	-23.2038	-212.334	19.0227	-37.8036	-215.111	25.0584	-52.3882	-182.771	20.2479	7.25478	-182.882	20.6403	32.934	-158.156	15.9559	16.5815	
78	0.65	-144.189	-18.5899	25.173	-148.59	-30.2645	-6.42664	-162.719	-30.2952	-25.2097	-185.091	-23.9521	-32.7302	-141.956	5.76722	-35.5812	-134.362	9.08305	-52.2799	-128.912	16.5194	-71.0225	-166.725	16.6352	-38.6799	-163.312	24.1238	-63.9538	-161.197	33.3446	-82.2302	-184.838	16.2796	-31.3726	-189.867	25.6601	-52.4454	-189.12	33.0654	-66.8759	-204.31	11.8164	-19.4842	-212.34	18.2155	-39.4173	-216.262	25.8661	-52.717	-180.826	15.7453	9.71305	-181.486	18.9523	31.4992	-155.489	12.2101	18.195	
79	0.658333	-145.997	-18.5923	23.6702	-147.127	-32.8174	-5.34613	-160.7	-33.2674	-28.0827	-185.101	-26.5063	-35.6462	-143.871	4.70897	-33.9949	-136.094	10.4019	-56.9606	-128.085	16.3722	-70.208	-166.002	15.8265	-40.6707	-162.384	20.9694	-59.92	-164.09	32.5883	-81.0299	-183.728	17.2833	-35.9093	-189.131	23.5864	-52.4689	-186.905	31.9965	-67.9118	-204.702	12.1923	-20.9339	-212.253	16.3859	-34.8024	-216.233	23.4487	-51.3235	-183.078	15.2142	9.81042	-179.364	19.8598	30.9917	-155.55	13.3472	17.6751	
80	0.666667	-147.274	-18.6001	23.6285	-145.42	-36.0621	-4.07123	-161.456	-30.9766	-25.549	-183.366	-27.6197	-33.5391	-141.541	5.94626	-37.0393	-136.043	10.655	-57.043	-125.668	16.7505	-73.3616	-165.17	15.3244	-40.959	-163.799	23.3025	-62.0276	-161.79	31.9711	-81.1674	-182.424	14.5809	-33.1484	-184.414	20.9669	-51.3014	-184.462	32.5355	-71.3401	-208.238	13.5277	-22.2157	-208.97	14.5029	-36.6828	-216.813	24.1239	-50.8239	-183.245	18.0807	4.54527	-177.943	17.117	32.1879	-155.209	11.8732	18.8744	
81	0.675	-143.332	-20.8738	24.4232	-146.846	-34.725	-5.95005	-160.93	-32.0135	-27.4414	-183.96	-27.7531	-34.8936	-141.235	4.61874	-34.4182	-137.389	10.4163	-53.8323	-129.697	18.792	-74.2707	-161.11	14.7794	-41.541	-159.219	22.343	-61.6045	-164.167	34.6873	-81.3523	-184.288	15.323	-32.8853	-187.098	22.9882	-50.6054	-184.172	34.1686	-71.727	-203.632	12.4891	-24.9127	-209.101	16.3392	-37.9209	-219.073	25.821	-51.467	-183.514	17.0069	7.4469	-182.678	18.0907	31.3537	-155.913	11.4291	17.9657	
82	0.683333	-144.464	-19.6391	23.733	-147.307	-34.0229	-2.90155	-163.218	-30.3609	-27.3205	-184.646	-23.2305	-33.8454	-139.72	6.03927	-34.2339	-134.647	10.1526	-52.9922	-131.025	18.6341	-72.4736	-163.114	14.8809	-38.2318	-161.358	23.7342	-63.866	-163.861	35.2293	-83.0989	-183.99	16.5468	-33.8	-188.274	23.4558	-51.4311	-183.853	32.4467	-70.1217	-203.929	11.1782	-19.6952	-211.202	16.8174	-35.9628	-217.75	23.899	-50.1956	-179.761	16.7437	4.95266	-179.097	18.5376	32.1549	-156.84	13.4537	20.3183	
83	0.691667	-147.067	-19.454	26.2119	-146.606	-34.5273	-6.11672	-162.327	-28.6649	-25.9554	-185.251	-22.9398	-36.1277	-140.242	5.63573	-33.3453	-135.628	11.4112	-54.3236	-128.762	19.0056	-71.8764	-165.092	18.5296	-41.9672	-165.125	24.4485	-62.2234	-165.245	34.417	-81.427	-183.982	16.6885	-32.6265	-187.663	23.8507	-51.2274	-188.37	34.7773	-69.9603	-206.464	12.5277	-20.1426	-213.46	16.6751	-34.9036	-215.411	25.5522	-53.3667	-183.621	17.042	5.712	-183.369	18.4553	32.4941	-156.012	13.3253	18.3896	
84	0.7	-144.584	-18.3698	21.9584	-146.835	-32.6658	-8.16778	-160.142	-30.737	-30.7688	-184.248	-23.9389	-37.3228	-140.551	6.48479	-33.1836	-135.832	12.5341	-57.8143	-127.011	18.0369	-71.409	-161.693	17.1795	-42.817	-164.502	24.8466	-60.2407	-162.003	35.7331	-82.7259	-185.558	18.4579	-34.1133	-186.015	25.6482	-55.252	-186.591	35.4189	-71.6763	-203.624	14.4484	-23.8208	-213.265	17.5822	-36.5699	-214.198	26.1263	-52.9973	-183.576	19.9149	5.35793	-181.37	17.8045	34.2813	-154.719	13.2529	18.2039	
85	0.708333	-145.042	-19.3855	23.7485	-148.099	-30.5048	-6.82947	-161.838	-28.5965	-26.4339	-184.591	-22.8348	-37.3251	-141.888	7.50071	-36.2019	-137.545	10.5994	-53.8359	-129.002	18.3837	-73.4203	-162.087	17.5442	-40.3838	-161.715	25.2369	-63.7364	-162.189	34.9353	-81.9201	-187.108	19.533	-34.3239	-184.549	25.0745	-54.02	-189.324	36.3986	-71.8884	-207.976	16.358	-24.2171	-211.374	17.6199	-37.4384	-218.671	28.6874	-55.2277	-184.479	18.2576	7.62107	-179.988	18.7625	30.3936	-155.138	12.4995	20.9402	
86	0.716667	-146.979	-17.8722	24.5349	-147.03	-31.422	-7.23621	-158.854	-31.7829	-28.0315	-186.827	-21.7779	-37.8711	-143.862	7.26097	-35.0461	-133.572	11.3665	-55.3758	-127.321	18.9518	-75.7032	-166.805	17.942	-39.2887	-163.75	23.758	-60.4065	-164.45	38.9182	-84.4407	-185.286	17.8378	-34.7666	-188.339	26.6648	-56.1989	-189.616	34.3097	-69.3237	-204.438	14.375	-23.5935	-209.835	17.8846	-41.9032	-218.932	26.5133	-53.4158	-185.137	16.8041	9.01188	-179.666	19.6892	30.0087	-154.57	13.8819	19.4776	
87	0.725	-145.902	-18.1919	23.96	-146.032	-32.1011	-8.34538	-161.711	-27.389	-26.6188	-184.962	-24.1422	-39.2028	-142.499	9.2621	-37.0907	-136.588	12.3533	-55.3614	-127.956	19.0195	-75.4808	-163.004	19.1797	-42.0366	-161.371	25.2127	-61.4945	-163.044	35.7896	-81.2442	-188.351	19.5602	-33.9144	-187.091	25.4108	-53.6255	-189.032	35.4788	-71.731	-204.867	14.0974	-23.1774	-213.725	19.0303	-40.5095	-219.542	25.8021	-53.6985	-185.096	19.4885	7.95829	-182.761	19.3927	34.4557	-156.438	14.8487	19.3516	
88	0.733333	-145.963	-16.8374	22.0153	-146.42	-30.1065	-6.58312	-160.79	-27.9314	-32.0866	-186.911	-20.7078	-35.5905	-144.54	8.57798	-34.7705	-134.417	12.8181	-58.2755	-131.168	18.7928	-74.6311	-167.137	21.0924	-43.562	-165.108	27.4428	-63.6027	-162.803	36.4763	-80.6346	-189.863	18.367	-32.6059	-188.28	24.4023	-52.7667	-191.215	34.2723	-70.2816	-205.193	14.6717	-23.4096	-211.358	17.2577	-38.6027	-220.755	25.4123	-51.4852	-183.358	18.8923	9.23839	-184.081	20.4571	32.4529	-156.349	14.0625	15.3157	
89	0.741667	-147.576	-15.2833	21.7051	-146.729	-27.9365	-6.77602	-161.817	-25.2687	-28.6361	-182.722	-22.8421	-37.5266	-144.315	9.38032	-36.3704	-136.192	12.689	-58.9928	-126.707	18.5804	-77.3699	-166.678	22.0994	-43.4681	-162.695	27.7532	-63.7397	-165.099	38.9447	-82.5656	-186.799	20.0628	-34.9159	-189.986	27.388	-53.4271	-189.311	34.6311	-71.7346	-208.313	14.8695	-20.9743	-212.902	18.4798	-39.9982	-218.14	26.6599	-57.1853	-187.114	19.5464	7.74947	-186.173	21.6473	32.5907	-156.77	16.3317	15.9322	
90	0.75	-145.109	-15.2347	23.7426	-147.623	-26.17	-6.66299	-161.181	-25.981	-32.5296	-185.469	-19.2089	-36.9001	-146.377	11.6553	-35.8015	-138.995	13.3867	-56.0601	-131.095	17.6088	-80.1207	-167.026	20.5027	-39.8768	-165.937	27.2148	-61.0521	-166.955	39.3647	-85.3671	-186.492	19.8531	-32.9133	-189.788	28.2542	-54.5386	-193.43	38.8008	-75.2146	-210.698	16.5769	-25.2226	-211.399	18.8575	-39.3929	-217.641	25.8745	-54.5667	-183.096	18.3871	7.19344	-187.424	20.7818	29.6648	-155.854	17.9754	17.6704	
91	0.758333	-144.518	-11.8425	22.8319	-143.977	-25.3614	-8.38134	-158.312	-25.1403	-30.3685	-181.615	-20.3118	-37.6145	-143.163	13.3395	-40.4834	-140.972	14.2422	-59.4781	-134.008	15.092	-81.4342	-166.087	22.0032	-40.0277	-166.118	29.6015	-66.3335	-169.564	39.1567	-86.666	-188.755	23.9534	-38.0017	-193.575	28.4953	-53.9685	-196.293	36.5983	-73.2341	-207.853	14.7711	-21.8239	-216.133	19.145	-39.8767	-223.365	28.4357	-55.4342	-184.674	21.2351	5.88181	-185.938	23.1526	29.0677	-159.742	18.7467	15.2997	
92	0.766667	-146.076	-9.21654	23.3284	-145.324	-20.3445	-5.45559	-157.836	-18.8216	-31.6663	-181.266	-15.5914	-37.3509	-148.613	14.8314	-38.2101	-143.216	14.6382	-62.8789	-140.737	11.4247	-82.1536	-172.583	25.1546	-42.0329	-172.283	29.3666	-65.4275	-171.161	38.2506	-89.8507	-193.102	24.1699	-36.0808	-195.598	30.4224	-56.6003	-195.244	37.0614	-72.4765	-211.762	16.8028	-23.2079	-216.454	20.1614	-39.6714	-223	28.689	-57.6671	-190.511	21.7256	6.60229	-187.148	22.3699	33.5773	-165.38	20.6134	19.267	
